<svg width="45.000000" height="32.000000" viewBox="0 0 45 32" fill="none" xmlns="http://www.w3.org/2000/svg" xmlns:xlink="http://www.w3.org/1999/xlink">
	<desc>
			Created with Pixso.
	</desc>
	<defs/>
	<path d="M29.28 27.24L13.8 27.24C13.6 28.55 12.93 29.74 11.92 30.6C10.92 31.46 9.64 31.93 8.31 31.93C6.99 31.93 5.71 31.46 4.7 30.6C3.69 29.74 3.03 28.55 2.82 27.24L0.88 27.24C0.39 27.23 -0.09 27.04 -0.44 26.68C-0.78 26.33 -0.98 25.86 -0.98 25.36L-0.98 1.87C-0.98 1.38 -0.78 0.9 -0.44 0.55C-0.09 0.2 0.39 0 0.88 0L26.43 0C26.93 0 27.4 0.2 27.75 0.55C28.1 0.9 28.29 1.38 28.29 1.87L28.29 3.78L35.41 3.78C35.49 3.78 35.57 3.79 35.65 3.81C37.95 4.01 39.1 5.21 40.32 7.27L43.88 13.36C43.97 13.51 44.01 13.67 44.01 13.84L44.01 26.3C44.01 26.55 43.92 26.78 43.74 26.96C43.57 27.14 43.33 27.24 43.08 27.24L40.27 27.24C40.06 28.54 39.4 29.74 38.39 30.6C37.38 31.46 36.1 31.93 34.78 31.93C33.45 31.93 32.17 31.46 31.16 30.6C30.16 29.74 29.49 28.54 29.28 27.24L29.28 27.24ZM31.06 26.3C31.07 27.03 31.29 27.75 31.71 28.35C32.12 28.96 32.7 29.43 33.38 29.7C34.06 29.98 34.81 30.05 35.52 29.9C36.24 29.75 36.9 29.39 37.42 28.87C37.93 28.35 38.28 27.69 38.42 26.97C38.56 26.25 38.49 25.51 38.2 24.83C37.92 24.15 37.45 23.57 36.84 23.17C36.23 22.76 35.51 22.54 34.78 22.54C33.79 22.55 32.84 22.95 32.14 23.65C31.44 24.36 31.06 25.31 31.06 26.3ZM4.6 26.3C4.6 27.03 4.83 27.75 5.24 28.35C5.65 28.96 6.24 29.43 6.92 29.7C7.6 29.98 8.34 30.05 9.06 29.9C9.78 29.75 10.44 29.39 10.95 28.87C11.47 28.35 11.82 27.69 11.96 26.97C12.1 26.25 12.02 25.51 11.74 24.83C11.46 24.15 10.98 23.57 10.37 23.17C9.76 22.76 9.04 22.54 8.31 22.54C7.32 22.55 6.37 22.95 5.68 23.65C4.98 24.36 4.59 25.31 4.59 26.3L4.6 26.3ZM40.27 25.36L42.15 25.36L42.15 19.74L39.42 19.74C39.3 19.74 39.17 19.72 39.06 19.67C38.95 19.62 38.85 19.55 38.76 19.47C38.67 19.38 38.6 19.28 38.56 19.16C38.51 19.05 38.49 18.93 38.49 18.8L38.49 16.96C38.49 16.24 38.76 15.54 39.26 15.02L32.88 15.02C32.8 15.02 32.73 15.01 32.65 14.99C31.95 14.93 31.29 14.6 30.81 14.08C30.34 13.56 30.07 12.87 30.08 12.17L30.08 7.47C30.08 7.34 30.1 7.22 30.15 7.11C30.19 7 30.26 6.89 30.35 6.81C30.43 6.72 30.54 6.65 30.65 6.6C30.76 6.55 30.88 6.53 31.01 6.53L37.49 6.53C37.14 6.21 36.74 5.97 36.29 5.81C35.85 5.66 35.38 5.61 34.91 5.65L28.29 5.65L28.29 25.36L29.28 25.36C29.49 24.05 30.16 22.86 31.16 22C32.17 21.14 33.45 20.67 34.78 20.67C36.1 20.67 37.38 21.14 38.39 22C39.39 22.86 40.06 24.05 40.27 25.36L40.27 25.36ZM13.8 25.36L26.43 25.36L26.43 1.87L0.88 1.87L0.88 25.36L2.82 25.36C3.03 24.05 3.69 22.86 4.7 22C5.71 21.14 6.99 20.67 8.31 20.67C9.64 20.67 10.92 21.14 11.92 22C12.93 22.86 13.6 24.05 13.8 25.36L13.8 25.36ZM40.35 16.96L40.35 17.87L42.15 17.87L42.15 16.02L41.27 16.02C41.03 16.02 40.79 16.12 40.62 16.3C40.44 16.47 40.35 16.71 40.35 16.96L40.35 16.96ZM31.93 12.17C31.93 12.42 32.03 12.66 32.21 12.84C32.39 13.02 32.63 13.13 32.88 13.13C32.94 13.13 33.01 13.13 33.07 13.15L41.59 13.15L38.83 8.41L31.93 8.41L31.93 12.17ZM32.03 26.3C32.02 25.57 32.31 24.86 32.83 24.34C33.34 23.82 34.04 23.53 34.77 23.52C35.02 23.52 35.26 23.62 35.44 23.8C35.61 23.97 35.71 24.21 35.71 24.46C35.71 24.71 35.61 24.95 35.44 25.13C35.26 25.3 35.02 25.4 34.77 25.4C34.6 25.4 34.42 25.45 34.27 25.55C34.12 25.65 34.01 25.79 33.94 25.95C33.87 26.11 33.85 26.3 33.88 26.47C33.92 26.65 34 26.81 34.13 26.93C34.25 27.06 34.41 27.15 34.59 27.18C34.76 27.22 34.94 27.2 35.11 27.13C35.27 27.06 35.42 26.95 35.51 26.8C35.61 26.65 35.67 26.48 35.67 26.3C35.67 26.05 35.76 25.82 35.94 25.64C36.11 25.47 36.35 25.37 36.6 25.37C36.84 25.37 37.08 25.47 37.25 25.64C37.43 25.82 37.52 26.05 37.52 26.3C37.52 27.03 37.23 27.73 36.72 28.24C36.2 28.76 35.5 29.05 34.77 29.05C34.04 29.05 33.35 28.76 32.83 28.24C32.31 27.73 32.02 27.03 32.02 26.3L32.03 26.3ZM5.56 26.3C5.56 25.57 5.85 24.86 6.36 24.34C6.88 23.82 7.58 23.53 8.31 23.52C8.56 23.52 8.8 23.62 8.97 23.8C9.15 23.97 9.25 24.21 9.25 24.46C9.25 24.71 9.15 24.95 8.97 25.13C8.8 25.3 8.56 25.4 8.31 25.4C8.13 25.4 7.96 25.45 7.81 25.55C7.66 25.65 7.54 25.79 7.47 25.95C7.4 26.11 7.39 26.3 7.42 26.47C7.45 26.65 7.54 26.81 7.66 26.93C7.79 27.06 7.95 27.15 8.12 27.18C8.3 27.22 8.48 27.2 8.65 27.13C8.81 27.06 8.95 26.95 9.05 26.8C9.15 26.65 9.2 26.48 9.2 26.3C9.2 26.05 9.3 25.82 9.47 25.64C9.65 25.47 9.89 25.37 10.13 25.37C10.38 25.37 10.61 25.47 10.79 25.64C10.96 25.82 11.06 26.05 11.06 26.3C11.06 27.03 10.77 27.73 10.25 28.24C9.74 28.76 9.04 29.05 8.31 29.05C7.58 29.05 6.88 28.76 6.37 28.24C5.85 27.73 5.56 27.03 5.56 26.3L5.56 26.3ZM3.7 5.65C3.46 5.65 3.22 5.56 3.04 5.38C2.86 5.2 2.77 4.97 2.77 4.72C2.77 4.47 2.86 4.23 3.04 4.05C3.22 3.88 3.46 3.78 3.7 3.78L23.6 3.78C23.85 3.78 24.09 3.88 24.27 4.05C24.44 4.23 24.54 4.47 24.54 4.72C24.54 4.97 24.44 5.2 24.27 5.38C24.09 5.56 23.85 5.65 23.6 5.65L3.7 5.65Z" fill="#F16D7F" fill-opacity="1.000000" fill-rule="nonzero"/>
</svg>
