<svg width="47.000000" height="35.000000" viewBox="0 0 47 35" fill="none" xmlns="http://www.w3.org/2000/svg" xmlns:xlink="http://www.w3.org/1999/xlink">
	<desc>
			Created with Pixso.
	</desc>
	<defs/>
	<path id="Forma 1" d="M41.39 8.53C40.17 8.52 39 8.99 38.13 9.84C37.26 10.69 36.76 11.85 36.74 13.06C36.75 13.7 36.89 14.34 37.16 14.92C37.42 15.5 37.82 16.01 38.3 16.43L32.44 18.48L24.1 8.8C25 8.5 25.78 7.93 26.33 7.17C26.89 6.41 27.19 5.49 27.2 4.54C27.18 3.33 26.68 2.17 25.81 1.32C24.94 0.47 23.77 0 22.56 0C21.34 0 20.18 0.47 19.31 1.32C18.44 2.17 17.94 3.33 17.91 4.54C17.92 5.48 18.22 6.39 18.77 7.15C19.31 7.91 20.08 8.48 20.96 8.79L12.61 18.49L6.75 16.43C7.23 16.02 7.62 15.5 7.89 14.92C8.16 14.34 8.3 13.71 8.31 13.07C8.33 12.19 8.1 11.32 7.66 10.57C7.21 9.82 6.56 9.2 5.77 8.81C4.99 8.41 4.11 8.24 3.24 8.32C2.37 8.4 1.53 8.72 0.84 9.25C0.14 9.79 -0.39 10.51 -0.7 11.33C-1 12.15 -1.07 13.04 -0.89 13.9C-0.71 14.76 -0.29 15.55 0.32 16.18C0.93 16.81 1.71 17.25 2.56 17.46L2.56 29.75C2.57 29.83 2.59 29.91 2.61 29.99C2.58 30.12 2.56 30.25 2.56 30.38C2.56 34.79 20.48 34.92 22.52 34.92C24.57 34.92 42.49 34.79 42.49 30.38C42.48 30.25 42.47 30.12 42.44 29.99C42.46 29.91 42.48 29.83 42.49 29.75L42.49 17.46C43.58 17.22 44.55 16.58 45.2 15.66C45.86 14.74 46.14 13.62 46 12.5C45.87 11.38 45.32 10.36 44.47 9.62C43.61 8.89 42.52 8.5 41.39 8.53L41.39 8.53ZM20.17 4.55C20.16 4.07 20.29 3.61 20.54 3.21C20.8 2.81 21.17 2.49 21.6 2.3C22.04 2.11 22.52 2.06 22.98 2.14C23.45 2.23 23.88 2.45 24.22 2.78C24.56 3.11 24.79 3.54 24.89 4C24.99 4.47 24.94 4.95 24.76 5.39C24.59 5.83 24.28 6.2 23.89 6.47C23.49 6.73 23.03 6.87 22.56 6.87C21.93 6.88 21.33 6.64 20.88 6.2C20.43 5.77 20.18 5.17 20.17 4.55ZM12.58 20.82C12.8 20.9 13.03 20.91 13.25 20.85C13.47 20.79 13.67 20.67 13.83 20.49L22.53 10.39L31.23 20.49C31.38 20.67 31.58 20.79 31.8 20.85C32.02 20.91 32.25 20.9 32.47 20.82L40.23 18.1L40.23 28.04C35.34 25.91 24.12 25.84 22.53 25.84C20.94 25.84 9.71 25.91 4.83 28.04L4.83 18.1L12.58 20.82ZM22.52 32.71C13.82 32.71 8.27 31.7 5.97 30.85C5.61 30.73 5.28 30.57 4.97 30.38C5.69 29.85 8.03 29.14 11.93 28.64C18.97 27.84 26.07 27.84 33.11 28.64C37.01 29.14 39.35 29.85 40.07 30.38C39.76 30.57 39.43 30.73 39.08 30.85C36.77 31.7 31.23 32.71 22.52 32.71ZM1.28 13.06C1.26 12.59 1.39 12.12 1.65 11.72C1.91 11.32 2.27 11.01 2.71 10.82C3.14 10.63 3.62 10.58 4.09 10.66C4.56 10.75 4.99 10.97 5.33 11.3C5.67 11.63 5.9 12.06 6 12.52C6.09 12.99 6.05 13.47 5.87 13.91C5.69 14.35 5.39 14.72 4.99 14.99C4.6 15.25 4.14 15.39 3.66 15.39C3.04 15.4 2.43 15.16 1.99 14.72C1.54 14.29 1.28 13.69 1.28 13.06ZM41.39 15.39C40.93 15.38 40.49 15.24 40.11 14.97C39.73 14.71 39.45 14.34 39.28 13.92C39.11 13.49 39.07 13.02 39.17 12.58C39.26 12.13 39.49 11.72 39.82 11.4C40.15 11.08 40.56 10.86 41.01 10.78C41.46 10.69 41.93 10.74 42.35 10.92C42.77 11.1 43.13 11.39 43.38 11.78C43.64 12.16 43.77 12.61 43.77 13.06C43.77 13.69 43.51 14.28 43.06 14.72C42.62 15.16 42.01 15.4 41.39 15.39L41.39 15.39Z" fill="#F16D7F" fill-opacity="1.000000" fill-rule="nonzero"/>
</svg>
