<svg width="26.000000" height="27.000000" viewBox="0 0 26 27" fill="none" xmlns="http://www.w3.org/2000/svg" xmlns:xlink="http://www.w3.org/1999/xlink">
	<desc>
			Created with Pixso.
	</desc>
	<defs/>
	<path d="M18.05 16.62C19.67 14.86 20.62 12.6 20.76 10.22C20.91 7.83 20.22 5.48 18.83 3.54C17.44 1.6 15.42 0.2 13.12 -0.43C10.82 -1.06 8.37 -0.87 6.19 0.09C4 1.06 2.22 2.74 1.13 4.87C0.05 6.99 -0.28 9.43 0.22 11.76C0.72 14.09 2 16.19 3.86 17.69C5.71 19.19 8.03 20 10.41 20C12.67 20 14.86 19.26 16.65 17.91L24.4 25.71C24.49 25.8 24.59 25.87 24.7 25.92C24.82 25.97 24.94 26 25.06 26C25.19 26 25.31 25.97 25.42 25.92C25.54 25.87 25.64 25.8 25.72 25.71C25.9 25.53 25.99 25.29 25.99 25.04C25.99 24.79 25.9 24.55 25.72 24.37L18.05 16.62ZM1.88 9.5C1.89 7.81 2.41 6.17 3.35 4.77C4.3 3.38 5.63 2.29 7.19 1.66C8.76 1.02 10.47 0.86 12.12 1.2C13.77 1.53 15.29 2.35 16.47 3.55C17.66 4.74 18.47 6.27 18.79 7.92C19.12 9.57 18.94 11.29 18.29 12.84C17.65 14.4 16.55 15.73 15.15 16.66C13.75 17.6 12.1 18.1 10.41 18.1C8.14 18.08 5.97 17.17 4.37 15.56C2.77 13.95 1.87 11.77 1.88 9.5Z" fill="#E8E8E8" fill-opacity="1.000000" fill-rule="nonzero"/>
</svg>
